<?xml version="1.0"?>
<svg xmlns="http://www.w3.org/2000/svg" width="230" height="230" viewBox="0 0 200 200" fill="none">
<path d="M44.065 130.61H30.827C29.4554 130.614 28.114 130.207 26.976 129.441C25.8112 128.685 24.9163 127.579 24.4202 126.282L2 70.0134H17.4637L35.1949 114.201L51.3389 74.4285C51.84 73.1237 52.7312 72.0051 53.8911 71.2251C55.02 70.4344 56.3655 70.0112 57.7439 70.0134H68.4787L44.0668 130.608L44.065 130.61ZM147.613 131.785L134.413 131.377L177.583 72.7833C178.218 71.86 179.098 71.1689 180.222 70.7064C181.306 70.2536 182.467 70.0182 183.641 70.0134H196.64L153.759 129.013C153.124 129.935 152.228 130.628 151.074 131.09C149.975 131.541 148.799 131.777 147.611 131.783L147.613 131.785ZM155.631 98.7824L133.561 70.0134H152.057L164.8 86.8195L155.634 98.7805L155.631 98.7824ZM197.482 131.785L179.107 131.495L167.144 114.438L176.257 102.225L197.48 131.789L197.482 131.785Z" fill="white"/>
<path d="M101.249 78.1998C107.155 78.1998 112.71 80.498 116.885 84.6755C118.945 86.7241 120.578 89.1609 121.689 91.8449C122.801 94.5288 123.369 97.4066 123.361 100.312C123.361 106.216 121.061 111.772 116.885 115.946C114.837 118.006 112.4 119.638 109.716 120.75C107.032 121.862 104.154 122.43 101.249 122.422C98.3441 122.43 95.4663 121.862 92.7823 120.75C90.0984 119.639 87.6616 118.006 85.6131 115.946C83.5534 113.897 81.9205 111.46 80.8089 108.776C79.6974 106.093 79.1292 103.215 79.1374 100.31C79.1374 94.4054 81.4356 88.8494 85.6131 84.6737C87.6617 82.614 90.0985 80.9811 92.7824 79.8696C95.4664 78.758 98.3441 78.1898 101.249 78.198M101.249 69.5963C84.2835 69.5981 70.5321 83.3495 70.5321 100.313C70.5321 117.275 84.2853 131.029 101.249 131.029C118.211 131.029 131.964 117.275 131.964 100.313C131.964 83.3495 118.215 69.5963 101.249 69.5963Z" fill="#C74413"/>
<path d="M101.249 77.0515C107.462 77.0515 113.303 79.4695 117.696 83.8628C119.863 86.0176 121.581 88.5807 122.75 91.4038C123.919 94.2269 124.517 97.254 124.509 100.31C124.509 106.524 122.089 112.365 117.696 116.758C115.541 118.925 112.978 120.642 110.155 121.811C107.332 122.981 104.305 123.578 101.249 123.57C98.1932 123.578 95.1659 122.981 92.3425 121.812C89.5191 120.643 86.9556 118.925 84.8004 116.758C82.6336 114.603 80.9159 112.039 79.7468 109.216C78.5776 106.392 77.9802 103.364 77.9891 100.308C77.9891 94.0952 80.4071 88.2543 84.8004 83.861C86.9556 81.6944 89.5191 79.9768 92.3425 78.8077C95.1659 77.6385 98.1932 77.0428 101.249 77.0515ZM101.249 68C83.4037 68.0018 68.9376 82.4679 68.9376 100.313C68.9376 118.157 83.4037 132.623 101.249 132.623C119.093 132.623 133.559 118.157 133.559 100.313C133.559 82.4679 119.093 68.0018 101.249 68.0018V68Z" fill="#F85D11"/>
<path d="M101.249 123.096C113.832 123.096 124.032 112.896 124.032 100.313C124.032 87.7307 113.832 77.5304 101.249 77.5304C88.6665 77.5304 78.4662 87.7307 78.4662 100.313C78.4662 112.896 88.6665 123.096 101.249 123.096Z" fill="#F85D11"/>
<path d="M101.249 114.867C109.287 114.867 115.802 108.351 115.802 100.313C115.802 92.2759 109.287 85.7603 101.249 85.7603C93.2117 85.7603 86.696 92.2759 86.696 100.313C86.696 108.351 93.2117 114.867 101.249 114.867Z" fill="white"/>
<path d="M99.1867 131.02C99.1069 131.02 99.0271 131.018 98.9473 131.01C93.8763 130.631 88.9782 129.002 84.6898 126.269C84.0049 125.801 83.5291 125.085 83.3631 124.272C83.1972 123.459 83.3541 122.613 83.8007 121.914C84.2472 121.215 84.9484 120.717 85.7556 120.526C86.5628 120.335 87.4128 120.466 88.1254 120.891C91.5221 123.055 95.4021 124.345 99.4189 124.645C100.237 124.713 100.998 125.093 101.543 125.708C102.089 126.322 102.376 127.123 102.345 127.943C102.315 128.764 101.969 129.541 101.38 130.114C100.791 130.686 100.004 131.009 99.1831 131.016L99.1867 131.02ZM113.97 127.996C113.255 127.997 112.56 127.759 111.997 127.318C111.434 126.877 111.035 126.26 110.865 125.566C110.695 124.871 110.763 124.139 111.059 123.488C111.355 122.837 111.861 122.304 112.496 121.975C116.071 120.11 119.132 117.394 121.411 114.067C121.901 113.398 122.631 112.946 123.448 112.806C124.265 112.667 125.105 112.85 125.789 113.318C126.473 113.786 126.948 114.501 127.114 115.313C127.28 116.125 127.124 116.97 126.679 117.669C123.807 121.862 119.949 125.284 115.443 127.635C114.973 127.878 114.469 127.996 113.974 127.996H113.97ZM76.3856 115.485C75.7855 115.485 75.1975 115.316 74.6892 114.998C74.1809 114.679 73.773 114.223 73.5124 113.682C71.4964 109.521 70.4542 104.956 70.465 100.333C70.465 99.8888 70.4722 99.4408 70.4904 98.9964V98.9547C70.5506 98.1244 70.9328 97.3506 71.5554 96.7981C72.178 96.2455 72.9918 95.958 73.8233 95.9968C74.6548 96.0356 75.4383 96.3976 76.0067 97.0057C76.5752 97.6138 76.8836 98.4199 76.8663 99.2522L73.6792 99.1052L76.8663 99.2594C76.678 103.281 77.5 107.286 79.2571 110.908C79.4915 111.395 79.5987 111.932 79.5689 112.471C79.539 113.01 79.373 113.532 79.0863 113.989C78.7996 114.447 78.4017 114.824 77.9297 115.085C77.4577 115.347 76.9253 115.484 76.3856 115.485ZM128.814 104.743C128.763 104.743 128.712 104.743 128.663 104.737C128.244 104.718 127.834 104.616 127.454 104.438C127.075 104.259 126.735 104.008 126.452 103.698C126.17 103.388 125.952 103.026 125.81 102.631C125.668 102.237 125.605 101.819 125.625 101.4V101.358C125.812 97.331 124.986 93.3213 123.221 89.6964C123.039 89.3193 122.932 88.9099 122.907 88.4916C122.883 88.0733 122.941 87.6543 123.079 87.2585C123.216 86.8626 123.43 86.4977 123.708 86.1846C123.987 85.8715 124.324 85.6164 124.701 85.4336C125.079 85.2509 125.488 85.1443 125.906 85.1198C126.325 85.0953 126.744 85.1534 127.139 85.2909C127.535 85.4283 127.9 85.6424 128.213 85.9209C128.526 86.1993 128.781 86.5367 128.964 86.9138C130.989 91.082 132.037 95.6574 132.026 100.292C132.026 100.736 132.017 101.188 131.999 101.632V101.701C131.96 102.52 131.607 103.293 131.014 103.859C130.42 104.425 129.632 104.741 128.812 104.741L128.814 104.743ZM78.4335 87.9731C77.8538 87.9718 77.2854 87.8126 76.7892 87.5126C76.2931 87.2126 75.8881 86.7832 75.6175 86.2705C75.347 85.7577 75.2212 85.181 75.2536 84.6021C75.286 84.0233 75.4754 83.4642 75.8015 82.9848C78.6688 78.7903 82.5227 75.3643 87.0243 73.0082C87.3959 72.8146 87.802 72.696 88.2195 72.6593C88.6369 72.6226 89.0575 72.6684 89.4572 72.7943C89.8569 72.9201 90.2279 73.1234 90.549 73.3926C90.8701 73.6618 91.1351 73.9916 91.3288 74.3632C91.5224 74.7348 91.641 75.141 91.6777 75.5584C91.7144 75.9758 91.6686 76.3964 91.5428 76.7961C91.4169 77.1958 91.2136 77.5668 90.9444 77.8879C90.6752 78.2091 90.3454 78.474 89.9738 78.6677C86.4011 80.5366 83.3426 83.255 81.0674 86.5837C80.4506 87.487 79.4475 87.975 78.4299 87.975L78.4335 87.9731ZM116.06 80.2222C115.474 80.2222 114.881 80.0608 114.348 79.7198C110.948 77.5589 107.067 76.2733 103.05 75.9776C102.234 75.8807 101.487 75.4727 100.964 74.8385C100.441 74.2044 100.183 73.3929 100.243 72.5732C100.303 71.7534 100.677 70.9885 101.288 70.4377C101.898 69.8868 102.697 69.5926 103.518 69.6162C108.589 69.9914 113.489 71.6153 117.779 74.3433C118.36 74.7154 118.805 75.2656 119.047 75.9116C119.289 76.5575 119.315 77.2645 119.122 77.9267C118.928 78.5888 118.526 79.1705 117.974 79.5846C117.422 79.9988 116.752 80.2231 116.062 80.224L116.06 80.2222Z" fill="white"/>
</svg>
